<svg xmlns="http://www.w3.org/2000/svg" viewBox="0 0 32 32" role="img" aria-label="Oneirox">
  <defs>
    <linearGradient id="onx-bg" x1="0%" y1="0%" x2="100%" y2="100%">
      <stop offset="0%" stop-color="#1a2e22"/>
      <stop offset="55%" stop-color="#243a2c"/>
      <stop offset="100%" stop-color="#1e3224"/>
    </linearGradient>
    <radialGradient id="onx-glow" cx="50%" cy="48%" r="52%">
      <stop offset="0%" stop-color="#00c4c7" stop-opacity="0.55"/>
      <stop offset="70%" stop-color="#00a5a8" stop-opacity="0.12"/>
      <stop offset="100%" stop-color="#00a5a8" stop-opacity="0"/>
    </radialGradient>
    <linearGradient id="onx-ring" x1="12%" y1="8%" x2="88%" y2="92%">
      <stop offset="0%" stop-color="#5ce0e2"/>
      <stop offset="45%" stop-color="#00a5a8"/>
      <stop offset="100%" stop-color="#2d6a6a"/>
    </linearGradient>
    <linearGradient id="onx-core" x1="30%" y1="20%" x2="75%" y2="85%">
      <stop offset="0%" stop-color="#cfedaf"/>
      <stop offset="40%" stop-color="#00d4d7"/>
      <stop offset="100%" stop-color="#00888b"/>
    </linearGradient>
  </defs>
  <rect width="32" height="32" rx="8" fill="url(#onx-bg)"/>
  <rect width="32" height="32" rx="8" fill="url(#onx-glow)"/>
  <circle cx="16" cy="16" r="9.2" fill="none" stroke="url(#onx-ring)" stroke-width="0.9" opacity="0.75"/>
  <circle cx="16" cy="16" r="5.6" fill="none" stroke="#00a5a8" stroke-width="0.55" opacity="0.35"/>
  <g stroke="#4dadb8" stroke-width="0.65" stroke-linecap="round" opacity="0.72">
    <line x1="16" y1="16" x2="16" y2="5.8"/>
    <line x1="16" y1="16" x2="25.5" y2="11.2"/>
    <line x1="16" y1="16" x2="25.2" y2="21.8"/>
    <line x1="16" y1="16" x2="16" y2="26.2"/>
    <line x1="16" y1="16" x2="6.8" y2="21.5"/>
    <line x1="16" y1="16" x2="6.5" y2="11"/>
  </g>
  <g fill="#00a5a8">
    <circle cx="16" cy="5.2" r="1.35"/>
    <circle cx="26" cy="10.8" r="1.15"/>
    <circle cx="25.8" cy="22.2" r="1.15"/>
    <circle cx="16" cy="26.8" r="1.35"/>
    <circle cx="6.2" cy="22" r="1.15"/>
    <circle cx="6" cy="10.6" r="1.15"/>
  </g>
  <circle cx="16" cy="16" r="3.1" fill="url(#onx-core)"/>
  <circle cx="14.6" cy="14.5" r="1" fill="#ffffff" opacity="0.55"/>
</svg>
